<svg xmlns="http://www.w3.org/2000/svg" width="24" height="24" viewBox="0 0 24 24">
  <path
      d="M19.7921 6.1213L6.1213 19.7921A1 1 0 0 1 4.7071 19.7921L4.7071 19.7921A1 1 0 0 1 4.7071 18.3778L18.3778 4.7071A1 1 49.0651 0 1 19.7921 4.7071L19.7921 4.7071A1 1 49.0651 0 1 19.7921 6.1213z"
      fill="#BCBCBC"
      fill-rule="nonzero"
      stroke="none"/>
  <path
      d="M6.1213 4.7071L19.7921 18.3778A1 1 0 0 1 19.7921 19.7921L19.7921 19.7921A1 1 0 0 1 18.3778 19.7921L4.7071 6.1213A1 1 122.5598 0 1 4.7071 4.7071L4.7071 4.7071A1 1 122.5598 0 1 6.1213 4.7071z"
      fill="#BCBCBC"
      fill-rule="nonzero"
      stroke="none"/>
</svg>