<svg
    xmlns="http://www.w3.org/2000/svg"
    viewBox="0 0 1024 1024"
    id="vector">
    <path
        id="path"
        d="M 725.33 85.33 C 780.285 85.332 833.168 106.57 872.861 144.577 C 912.554 182.584 936.065 234.497 938.45 289.4 L 938.67 298.67 L 938.67 473.13 C 938.624 483.983 934.439 494.419 926.975 502.297 C 919.51 510.175 909.315 514.916 898.48 515.547 C 887.646 516.178 876.969 512.652 868.641 505.693 C 860.312 498.734 854.945 488.854 853.64 478.08 L 853.33 473.17 L 853.33 298.67 C 853.333 266.031 840.851 234.596 818.461 210.849 C 796.07 187.102 765.423 172.795 732.84 170.88 L 725.33 170.67 L 213.33 170.67 C 180.691 170.667 149.256 183.149 125.509 205.539 C 101.762 227.93 87.455 258.577 85.54 291.16 L 85.33 298.67 L 85.33 725.34 C 85.327 755.532 96.007 784.772 115.468 807.855 C 134.929 830.938 161.942 846.408 191.7 851.51 L 218.49 823.18 L 464.16 577.51 C 487.125 554.549 517.99 541.166 550.447 540.097 C 582.905 539.028 614.583 550.35 639.01 571.75 L 645.15 577.51 L 722.38 654.74 C 729.943 662.434 734.313 672.718 734.603 683.503 C 734.893 694.288 731.082 704.792 723.944 712.882 C 716.806 720.972 706.859 726.061 696.121 727.116 C 685.384 728.171 674.636 725.116 666.06 718.57 L 662.01 715.03 L 584.83 637.85 C 577.485 630.507 567.705 626.092 557.339 625.441 C 546.973 624.789 536.717 627.944 528.51 634.31 L 524.5 637.85 L 308.91 853.33 L 725.33 853.33 C 736.186 853.366 746.629 857.544 754.515 865.005 C 762.4 872.466 767.149 882.663 767.785 893.5 C 768.421 904.337 764.897 915.019 757.939 923.351 C 750.98 931.684 741.097 937.054 730.32 938.36 L 725.33 938.67 L 209.15 938.67 C 208 938.67 206.8 938.67 205.61 938.58 L 213.33 938.67 C 158.375 938.668 105.492 917.43 65.799 879.423 C 26.106 841.416 2.595 789.503 0.21 734.6 L 0 725.33 L 0 298.67 C 0.002 243.715 21.24 190.832 59.247 151.139 C 97.254 111.446 149.167 87.935 204.07 85.55 L 213.33 85.33 L 725.33 85.33 Z M 821.03 589.99 L 881.36 650.36 L 941.69 589.99 C 949.701 582.035 960.551 577.575 971.841 577.596 C 983.131 577.618 993.964 582.119 1001.945 590.105 C 1009.925 598.091 1014.42 608.927 1014.434 620.217 C 1014.448 631.507 1009.981 642.354 1002.02 650.36 L 941.69 710.69 L 1002.02 771.02 C 1009.73 779.076 1013.983 789.841 1013.861 800.991 C 1013.739 812.141 1009.251 822.811 1001.366 830.696 C 993.481 838.581 982.811 843.069 971.661 843.191 C 960.511 843.313 949.746 839.06 941.69 831.35 L 881.36 771.02 L 821.03 831.35 C 813.024 839.311 802.177 843.778 790.887 843.764 C 779.597 843.75 768.761 839.255 760.775 831.275 C 752.789 823.294 748.288 812.461 748.266 801.171 C 748.245 789.881 752.705 779.031 760.66 771.02 L 821.03 710.69 L 760.66 650.36 C 752.699 642.349 748.234 631.497 748.252 620.203 C 748.27 608.909 752.769 598.071 760.755 590.085 C 768.741 582.099 779.579 577.6 790.873 577.582 C 802.167 577.564 813.019 582.029 821.03 589.99 Z M 298.67 298.67 C 316.725 298.613 334.341 304.287 348.968 314.872 C 363.595 325.457 374.492 340.416 380.082 357.584 C 385.672 374.751 385.672 393.259 380.082 410.426 C 374.492 427.594 363.595 442.553 348.968 453.138 C 334.341 463.723 316.725 469.397 298.67 469.34 C 276.093 469.269 254.442 460.24 238.503 444.251 C 222.564 428.261 213.604 406.582 213.604 384.005 C 213.604 361.428 222.564 339.749 238.503 323.759 C 254.442 307.77 276.093 298.741 298.67 298.67 Z"
        fill="#cdcdcd"/>
</svg>
