<svg
    xmlns="http://www.w3.org/2000/svg"
    viewBox="0 0 48 48"
    id="vector">
    <path
        id="path"
        d="M 11.56 9.5 C 18.43 5.33 27.4 4.87 34.61 8.46 C 40.9 11.41 45.4 17.23 48 23.54 L 48 25.1 C 45.69 30.32 42.2 35.21 37.25 38.2 C 29.92 42.65 20.31 43.21 12.63 39.31 C 6.79 36.49 2.42 31.24 0 25.29 L 0 23.81 C 2.26 18.02 6.12 12.67 11.56 9.5 M 18.38 10.53 C 11.59 12.47 5.84 18.28 3.87 24.96 C 7.03 32.63 14.63 38.45 23.09 38.41 C 32.38 39.11 41.21 32.61 44.2 23.97 C 40.67 13.78 28.85 7.34 18.38 10.53 Z"
        fill="#000000"/>
    <path
        id="path_1"
        d="M 20.27 14.39 C 26.08 11.83 33.43 15.83 34.46 22.08 C 35.72 27.66 31.55 33.66 25.89 34.44 C 20.45 35.49 14.73 31.46 13.88 25.99 C 12.91 21.24 15.76 16.12 20.27 14.39 M 22.33 17.47 C 17.9 18.68 15.6 24.67 18.77 28.26 C 21.54 32.31 28.21 31.62 30.27 27.22 C 33.27 22.31 27.7 15.68 22.33 17.47 Z"
        fill="#000000"/>
</svg>
