<svg
    xmlns="http://www.w3.org/2000/svg"
    viewBox="0 0 48 48"
    id="vector">
    <path
        id="path"
        d="M 0 13.76 C 0.52 13.42 1.56 12.75 2.08 12.42 C 4.57 14.8 6.41 17.82 9.21 19.87 C 17.59 26.6 30.65 26.63 39.01 19.87 C 41.75 17.81 43.53 14.82 45.92 12.42 C 46.44 12.74 47.48 13.37 48 13.68 L 48 15.25 C 46.29 17.7 44.26 19.91 42.24 22.11 C 43.65 24.19 47.86 25.98 46.01 28.85 C 42.95 29.5 41.47 25.9 39.38 24.31 C 36.97 25.58 34.48 26.68 31.92 27.6 C 32.38 30.11 35.34 33.46 32.89 35.54 C 29.49 35.55 29.76 30.64 28.44 28.32 C 25.41 28.44 22.37 28.44 19.34 28.31 C 18.55 30.56 17.92 32.9 16.75 35 C 15.65 36.68 12.81 34.69 14.01 33.02 C 14.51 31.16 15.22 29.37 15.89 27.57 C 13.41 26.67 11 25.6 8.67 24.36 C 6.59 25.92 5.11 29.51 2.08 28.84 C 0.23 25.99 4.43 24.19 5.83 22.12 C 3.78 19.89 1.74 17.63 0 15.14 L 0 13.76 Z"
        fill="#000000"/>
</svg>
