<svg width="78" height="78" viewBox="0 0 78 78" fill="none" xmlns="http://www.w3.org/2000/svg">
<g filter="url(#filter0_f_2437_2572)">
<path d="M55.9818 23.4218L51.1257 52.5651C51.0626 52.9305 50.8566 53.2162 50.5178 53.4189C50.3418 53.5152 50.1425 53.5717 49.9299 53.5717C49.7904 53.5717 49.6376 53.5384 49.4749 53.4753L41.6094 50.2597C41.1776 50.0836 40.6827 50.2099 40.3871 50.5686L36.2916 55.5648C36.0624 55.8572 35.7502 56 35.3616 56C35.1988 56 35.0593 55.9734 34.9398 55.9236C34.7006 55.8339 34.5079 55.6911 34.3618 55.4785C34.2157 55.2692 34.1393 55.04 34.1393 54.7842V48.9243C34.1393 48.4326 34.3087 47.9609 34.6176 47.5789L50.5311 28.0692L30.4988 45.4097C30.346 45.5392 30.1335 45.5758 29.9508 45.4994L22.7596 42.5528C22.2913 42.3767 22.0355 42.0313 22.0023 41.5064C21.9757 41.0015 22.1784 40.6261 22.6102 40.3836L54.1782 22.1694C54.3708 22.0532 54.5701 22 54.786 22C55.0418 22 55.271 22.0731 55.4736 22.2126C55.8954 22.5116 56.0582 22.9202 55.9818 23.4218Z" fill="url(#paint0_linear_2437_2572)" fill-opacity="0.8"/>
</g>
<path d="M58.1681 21.5989L53.3744 50.3675C53.3121 50.7282 53.1088 51.0102 52.7744 51.2102C52.6006 51.3053 52.4039 51.3611 52.194 51.3611C52.0563 51.3611 51.9055 51.3283 51.7448 51.266L43.9806 48.0917C43.5543 47.9179 43.0658 48.0425 42.7739 48.3966L38.7311 53.3286C38.5049 53.6172 38.1967 53.7582 37.8131 53.7582C37.6524 53.7582 37.5147 53.7319 37.3966 53.6827C37.1606 53.5942 36.9704 53.4532 36.8261 53.2433C36.6819 53.0367 36.6064 52.8105 36.6064 52.558V46.7734C36.6064 46.2881 36.7737 45.8225 37.0786 45.4453L52.7875 26.1865L33.0128 43.304C32.862 43.4319 32.6522 43.468 32.4718 43.3926L25.3731 40.4839C24.9108 40.3101 24.6584 39.9691 24.6256 39.4509C24.5993 38.9525 24.7994 38.5819 25.2256 38.3426L56.3877 20.3626C56.5779 20.2478 56.7746 20.1954 56.9877 20.1954C57.2402 20.1954 57.4664 20.2675 57.6664 20.4052C58.0828 20.7004 58.2435 21.1037 58.1681 21.5989Z" fill="url(#paint1_linear_2437_2572)"/>
<defs>
<filter id="filter0_f_2437_2572" x="0.299999" y="0.299999" width="77.4" height="77.4" filterUnits="userSpaceOnUse" color-interpolation-filters="sRGB">
<feFlood flood-opacity="0" result="BackgroundImageFix"/>
<feBlend mode="normal" in="SourceGraphic" in2="BackgroundImageFix" result="shape"/>
<feGaussianBlur stdDeviation="10.85" result="effect1_foregroundBlur_2437_2572"/>
</filter>
<linearGradient id="paint0_linear_2437_2572" x1="39" y1="22" x2="29.909" y2="88.4431" gradientUnits="userSpaceOnUse">
<stop stop-color="white"/>
<stop offset="1" stop-color="#BCBCBC"/>
</linearGradient>
<linearGradient id="paint1_linear_2437_2572" x1="41.4047" y1="20.1954" x2="30.4814" y2="82.8151" gradientUnits="userSpaceOnUse">
<stop stop-color="white"/>
<stop offset="1" stop-color="#838383"/>
</linearGradient>
</defs>
</svg>
