<svg width="50" height="50" viewBox="0 0 50 50" fill="none" xmlns="http://www.w3.org/2000/svg">
<g filter="url(#filter0_f_2439_2668)">
<path d="M41.9818 9.42179L37.1257 38.5651C37.0626 38.9305 36.8566 39.2162 36.5178 39.4189C36.3418 39.5152 36.1425 39.5717 35.9299 39.5717C35.7904 39.5717 35.6376 39.5384 35.4749 39.4753L27.6094 36.2597C27.1776 36.0836 26.6827 36.2099 26.3871 36.5686L22.2916 41.5648C22.0624 41.8572 21.7502 42 21.3616 42C21.1988 42 21.0593 41.9734 20.9397 41.9236C20.7006 41.8339 20.5079 41.6911 20.3618 41.4785C20.2157 41.2692 20.1393 41.04 20.1393 40.7842V34.9243C20.1393 34.4326 20.3087 33.9609 20.6176 33.5789L36.5311 14.0692L16.4988 31.4097C16.346 31.5392 16.1335 31.5758 15.9508 31.4994L8.75962 28.5528C8.29129 28.3767 8.03553 28.0313 8.00231 27.5064C7.97574 27.0015 8.17835 26.6261 8.61015 26.3836L40.1782 8.16942C40.3708 8.05315 40.5701 8 40.786 8C41.0418 8 41.271 8.07308 41.4736 8.2126C41.8954 8.51158 42.0582 8.92018 41.9818 9.42179Z" fill="url(#paint0_linear_2439_2668)"/>
</g>
<path d="M43.1681 6.59888L38.3744 35.3675C38.3121 35.7282 38.1088 36.0102 37.7744 36.2102C37.6006 36.3053 37.4039 36.3611 37.194 36.3611C37.0563 36.3611 36.9055 36.3283 36.7448 36.266L28.9806 33.0917C28.5543 32.9179 28.0658 33.0425 27.7739 33.3966L23.7311 38.3286C23.5049 38.6172 23.1967 38.7582 22.8131 38.7582C22.6524 38.7582 22.5147 38.7319 22.3966 38.6827C22.1606 38.5942 21.9704 38.4532 21.8261 38.2433C21.6819 38.0367 21.6064 37.8105 21.6064 37.558V31.7734C21.6064 31.2881 21.7737 30.8225 22.0786 30.4453L37.7875 11.1865L18.0128 28.304C17.862 28.4319 17.6522 28.468 17.4718 28.3926L10.3731 25.4839C9.91083 25.3101 9.65836 24.9691 9.62557 24.4509C9.59934 23.9525 9.79935 23.5819 10.2256 23.3426L41.3877 5.36261C41.5779 5.24784 41.7746 5.19537 41.9877 5.19537C42.2402 5.19537 42.4664 5.26752 42.6664 5.40524C43.0828 5.70037 43.2435 6.10372 43.1681 6.59888Z" fill="url(#paint1_linear_2439_2668)"/>
<defs>
<filter id="filter0_f_2439_2668" x="0" y="0" width="50" height="50" filterUnits="userSpaceOnUse" color-interpolation-filters="sRGB">
<feFlood flood-opacity="0" result="BackgroundImageFix"/>
<feBlend mode="normal" in="SourceGraphic" in2="BackgroundImageFix" result="shape"/>
<feGaussianBlur stdDeviation="4" result="effect1_foregroundBlur_2439_2668"/>
</filter>
<linearGradient id="paint0_linear_2439_2668" x1="25" y1="8" x2="15.909" y2="74.4431" gradientUnits="userSpaceOnUse">
<stop stop-color="white"/>
<stop offset="1" stop-color="#BCBCBC"/>
</linearGradient>
<linearGradient id="paint1_linear_2439_2668" x1="26.4047" y1="5.19537" x2="15.4814" y2="67.8151" gradientUnits="userSpaceOnUse">
<stop stop-color="white"/>
<stop offset="1" stop-color="#838383"/>
</linearGradient>
</defs>
</svg>
