<svg width="67" height="67" viewBox="0 0 67 67" fill="none" xmlns="http://www.w3.org/2000/svg">
<g filter="url(#filter0_f_2438_2574)">
<path d="M48.2976 33.6257C48.3276 33.5964 48.3539 33.5671 48.3764 33.5377L49.3436 32.5913C50.6894 31.2708 50.6857 29.3083 49.3398 27.9841C48.6838 27.3385 48.024 26.6966 47.3679 26.0546C46.6031 25.3063 45.7184 25.1669 44.7325 25.5888C44.3951 25.7318 44.0202 25.8456 43.6565 25.8602C41.6246 25.9336 40.2825 23.9088 41.141 22.0967C41.6021 21.1246 41.4447 20.2626 40.6724 19.5033L38.7155 17.5885C37.3509 16.2606 35.3565 16.257 33.9957 17.5922C28.4061 23.0577 22.8165 28.527 17.227 33.9962C15.8774 35.3168 15.8811 37.2793 17.227 38.6035C17.883 39.2491 18.5428 39.891 19.1989 40.5329C19.9637 41.2812 20.8371 41.4243 21.8343 41.0061C22.0143 40.9291 22.2055 40.8741 22.3967 40.8227C22.7791 40.7237 23.1202 40.742 23.1802 40.7493C23.2702 40.7567 23.3639 40.7677 23.4539 40.7824C25.2271 41.1272 26.153 42.8916 25.4108 44.5019C24.9646 45.4629 25.1258 46.3286 25.8906 47.0769C26.5542 47.7262 27.214 48.3755 27.8775 49.0211C29.2196 50.3269 31.2253 50.3269 32.5674 49.0174C35.9376 45.7197 39.3116 42.422 42.6818 39.1243C42.7081 39.1023 42.7343 39.0803 42.7568 39.0546" fill="url(#paint0_linear_2438_2574)" fill-opacity="0.8"/>
</g>
<path d="M49.4967 29.4739C49.5265 29.4448 49.5526 29.4156 49.5749 29.3865L50.5359 28.446C51.873 27.1337 51.8693 25.1834 50.5321 23.8675C49.8803 23.2259 49.2248 22.588 48.573 21.9501C47.8132 21.2064 46.9342 21.0679 45.9547 21.4871C45.6194 21.6293 45.247 21.7423 44.8857 21.7569C42.867 21.8298 41.5336 19.8176 42.3865 18.0168C42.8446 17.0508 42.6882 16.1942 41.921 15.4396L39.9767 13.5367C38.621 12.2172 36.6395 12.2135 35.2875 13.5404C29.7342 18.9719 24.1809 24.407 18.6275 29.8421C17.2867 31.1544 17.2904 33.1047 18.6275 34.4206C19.2793 35.0622 19.9348 35.7001 20.5866 36.338C21.3465 37.0817 22.2143 37.2238 23.205 36.8083C23.3838 36.7317 23.5737 36.677 23.7637 36.626C24.1436 36.5276 24.4825 36.5458 24.5421 36.5531C24.6315 36.5604 24.7246 36.5713 24.814 36.5859C26.5757 36.9286 27.4957 38.6819 26.7583 40.2822C26.315 41.2373 26.4752 42.0976 27.235 42.8412C27.8942 43.4864 28.5498 44.1317 29.209 44.7732C30.5424 46.0709 32.535 46.0709 33.8684 44.7696C37.2168 41.4925 40.5689 38.2154 43.9173 34.9382C43.9434 34.9164 43.9695 34.8945 43.9918 34.869" fill="url(#paint1_linear_2438_2574)"/>
<path d="M34.5879 35.117C36.6066 33.1449 38.6216 31.1692 40.6403 29.1934C40.8563 28.982 40.9681 28.7305 40.9755 28.3951C40.9532 27.9832 40.7483 27.6442 40.3237 27.4692C39.9029 27.2942 39.5006 27.3562 39.1654 27.6661C38.8116 27.9905 38.4763 28.3332 38.1337 28.6685C36.4465 30.3162 34.763 31.9675 33.0794 33.6188C32.6176 34.0708 32.6027 34.7161 33.031 35.1426C33.4594 35.5691 34.1298 35.5618 34.5879 35.117ZM29.7944 30.5349C31.8131 28.5628 33.8281 26.5871 35.8468 24.615C36.0628 24.4035 36.1746 24.152 36.182 23.8166C36.1597 23.4047 35.9548 23.0657 35.5302 22.8907C35.1093 22.7158 34.7071 22.7777 34.3719 23.0876C34.018 23.412 33.6828 23.7547 33.3402 24.09C31.6529 25.7377 29.9694 27.389 28.2859 29.0403C27.8241 29.4924 27.8092 30.1376 28.2375 30.5641C28.6658 30.9869 29.3363 30.9796 29.7944 30.5349Z" fill="white"/>
<defs>
<filter id="filter0_f_2438_2574" x="0.116186" y="0.491674" width="66.3349" height="65.6083" filterUnits="userSpaceOnUse" color-interpolation-filters="sRGB">
<feFlood flood-opacity="0" result="BackgroundImageFix"/>
<feBlend mode="normal" in="SourceGraphic" in2="BackgroundImageFix" result="shape"/>
<feGaussianBlur stdDeviation="8.05" result="effect1_foregroundBlur_2438_2574"/>
</filter>
<linearGradient id="paint0_linear_2438_2574" x1="40.9986" y1="-4.94582" x2="24.2164" y2="52.0683" gradientUnits="userSpaceOnUse">
<stop stop-color="white"/>
<stop offset="1" stop-color="#4398FD"/>
</linearGradient>
<linearGradient id="paint1_linear_2438_2574" x1="42.245" y1="-8.85699" x2="25.5641" y2="47.7993" gradientUnits="userSpaceOnUse">
<stop stop-color="white"/>
<stop offset="1" stop-color="#4398FD"/>
</linearGradient>
</defs>
</svg>
