<svg width="53" height="52" viewBox="0 0 53 52" fill="none" xmlns="http://www.w3.org/2000/svg">
<g filter="url(#filter0_f_2439_2669)">
<path d="M41.9116 26.2884C41.9425 26.2584 41.9695 26.2284 41.9926 26.1984L42.9878 25.2311C44.3725 23.8814 44.3687 21.8756 42.9839 20.5221C42.3089 19.8623 41.63 19.2062 40.955 18.5501C40.1681 17.7852 39.2578 17.6428 38.2433 18.0739C37.8962 18.2201 37.5104 18.3364 37.1363 18.3514C35.0456 18.4263 33.6647 16.3568 34.5481 14.5047C35.0225 13.5111 34.8605 12.6301 34.0659 11.854L32.0524 9.8969C30.6483 8.53969 28.5963 8.53594 27.1961 9.90065C21.4449 15.487 15.6937 21.077 9.94248 26.6671C8.55386 28.0168 8.55772 30.0226 9.94248 31.3761C10.6175 32.0359 11.2964 32.6921 11.9714 33.3482C12.7583 34.113 13.657 34.2592 14.6831 33.8318C14.8682 33.7531 15.0649 33.6968 15.2617 33.6444C15.6551 33.5431 16.0061 33.5619 16.0678 33.5694C16.1604 33.5769 16.2568 33.5881 16.3494 33.6031C18.1739 33.9555 19.1267 35.7589 18.3629 37.4048C17.9039 38.3871 18.0698 39.2719 18.8567 40.0367C19.5394 40.7004 20.2183 41.364 20.901 42.0238C22.2819 43.3585 24.3456 43.3585 25.7265 42.0201C29.1942 38.6495 32.6657 35.279 36.1334 31.9085C36.1604 31.886 36.1874 31.8635 36.2105 31.8372" fill="#4E9EFF"/>
</g>
<path d="M40.9741 24.4174C41.0031 24.3889 41.0286 24.3605 41.0504 24.332L41.9879 23.4145C43.2924 22.1342 43.2888 20.2315 41.9842 18.9477C41.3483 18.3218 40.7088 17.6994 40.0729 17.077C39.3316 16.3515 38.4741 16.2164 37.5184 16.6254C37.1914 16.7641 36.828 16.8743 36.4755 16.8885C34.506 16.9597 33.2052 14.9965 34.0373 13.2397C34.4842 12.2973 34.3316 11.4615 33.5831 10.7253L31.6863 8.86891C30.3636 7.5815 28.4305 7.57795 27.1114 8.87247C21.6935 14.1715 16.2757 19.474 10.8578 24.7766C9.54965 26.0569 9.55329 27.9595 10.8578 29.2434C11.4937 29.8693 12.1332 30.4917 12.7691 31.114C13.5104 31.8395 14.3571 31.9782 15.3236 31.5728C15.4981 31.4981 15.6834 31.4448 15.8687 31.395C16.2393 31.299 16.57 31.3168 16.6281 31.3239C16.7154 31.331 16.8062 31.3417 16.8934 31.3559C18.6122 31.6902 19.5097 33.4008 18.7902 34.962C18.3578 35.8938 18.514 36.7331 19.2553 37.4586C19.8985 38.0881 20.538 38.7176 21.1812 39.3435C22.4821 40.6096 24.4261 40.6096 25.727 39.3399C28.9937 36.1428 32.264 32.9456 35.5308 29.7484C35.5562 29.7271 35.5816 29.7057 35.6034 29.6808" fill="url(#paint0_linear_2439_2669)"/>
<path d="M26.4289 29.9228C28.3983 27.9988 30.3642 26.0712 32.3337 24.1437C32.5444 23.9374 32.6534 23.692 32.6607 23.3648C32.6389 22.963 32.439 22.6322 32.0248 22.4615C31.6142 22.2908 31.2217 22.3513 30.8947 22.6536C30.5495 22.9701 30.2225 23.3044 29.8882 23.6316C28.2421 25.239 26.5997 26.8501 24.9572 28.4611C24.5066 28.9021 24.4921 29.5316 24.91 29.9477C25.3278 30.3638 25.9819 30.3567 26.4289 29.9228ZM21.7523 25.4524C23.7217 23.5284 25.6876 21.6009 27.6571 19.6769C27.8678 19.4706 27.9768 19.2252 27.9841 18.898C27.9623 18.4962 27.7624 18.1654 27.3482 17.9947C26.9376 17.824 26.5451 17.8845 26.2181 18.1868C25.8729 18.5033 25.5459 18.8376 25.2116 19.1648C23.5655 20.7722 21.9231 22.3833 20.2806 23.9943C19.83 24.4353 19.8155 25.0648 20.2334 25.4809C20.6513 25.8934 21.3053 25.8863 21.7523 25.4524Z" fill="white"/>
<defs>
<filter id="filter0_f_2439_2669" x="0.902466" y="0.878052" width="51.1219" height="50.1464" filterUnits="userSpaceOnUse" color-interpolation-filters="sRGB">
<feFlood flood-opacity="0" result="BackgroundImageFix"/>
<feBlend mode="normal" in="SourceGraphic" in2="BackgroundImageFix" result="shape"/>
<feGaussianBlur stdDeviation="4" result="effect1_foregroundBlur_2439_2669"/>
</filter>
<linearGradient id="paint0_linear_2439_2669" x1="33.8992" y1="-12.9786" x2="17.6252" y2="42.2957" gradientUnits="userSpaceOnUse">
<stop stop-color="white"/>
<stop offset="1" stop-color="#4398FD"/>
</linearGradient>
</defs>
</svg>
