<svg width="47" height="39" viewBox="0 0 47 39" fill="none" xmlns="http://www.w3.org/2000/svg">
<g filter="url(#filter0_f_3480_62)">
<path d="M6 28.4151V7.01887C6 7.01887 6.00101 6 7.03042 6L8.57353 6L22.9853 8.54717H23.5L37.9118 6H39.9706C41 6 41 7.01887 41 7.01887V28.4151C41 28.4151 41.001 29.434 39.9706 29.434H28.1323C26.5882 29.434 25.902 31.8113 25.5588 33H20.9265C20.9265 33 20.4118 29.4341 17.8382 29.434L7.54512 29.434C6.00101 29.434 6 28.4151 6 28.4151Z" fill="#657CF8" fill-opacity="0.89"/>
</g>
<g filter="url(#filter1_d_3480_62)">
<path d="M6.49902 26V5C6.49902 5 6.5 4 7.5 4L8.99902 4L22.999 6.5H23.499L37.499 4H39.499C40.499 4 40.499 5 40.499 5V26C40.499 26 40.5 27 39.499 27H27.999C26.499 27 25.8324 29.3333 25.499 30.5H20.999C20.999 30.5 20.499 27.0001 17.999 27L8 27C6.5 27 6.49902 26 6.49902 26Z" fill="#657CF8"/>
</g>
<path d="M23.5 27.9997H23C23 27.9997 22.3766 26.2262 21.5 25.4997C20.6904 24.8287 20 24.5035 19 24.4997C18.1646 24.4965 12.4434 24.4962 10 24.4984C9.51869 24.4988 9.16456 24.4994 9 24.5V23V2.49967V0.99967H10C10 0.99967 17 0.999313 19 0.99967C21 1.00003 23 3.50003 23 5.49967H23.5C23.5 3.50003 25 1.00003 28 0.99967H36.5H37.5V2.49967V23.4997V24.4997H36.5H27C26.5 24.4997 25.663 24.9314 25 25.4997C24.1355 26.2406 23.5 27.9997 23.5 27.9997Z" fill="#FDFDFD"/>
<path d="M12.5 8H19V10.5H12.5V8Z" fill="#D9D9D9"/>
<path d="M27.5 8H34V10.5H27.5V8Z" fill="#D9D9D9"/>
<path d="M12.5 15H19V17.5H12.5V15Z" fill="#D9D9D9"/>
<path d="M27.5 15H34V17.5H27.5V15Z" fill="#D9D9D9"/>
<path d="M23 28H23.5V5.5H23V28Z" fill="#D9D9D9"/>
<defs>
<filter id="filter0_f_3480_62" x="0.8" y="0.8" width="45.4" height="37.4" filterUnits="userSpaceOnUse" color-interpolation-filters="sRGB">
<feFlood flood-opacity="0" result="BackgroundImageFix"/>
<feBlend mode="normal" in="SourceGraphic" in2="BackgroundImageFix" result="shape"/>
<feGaussianBlur stdDeviation="2.6" result="effect1_foregroundBlur_3480_62"/>
</filter>
<filter id="filter1_d_3480_62" x="2.49902" y="4" width="42" height="34.5" filterUnits="userSpaceOnUse" color-interpolation-filters="sRGB">
<feFlood flood-opacity="0" result="BackgroundImageFix"/>
<feColorMatrix in="SourceAlpha" type="matrix" values="0 0 0 0 0 0 0 0 0 0 0 0 0 0 0 0 0 0 127 0" result="hardAlpha"/>
<feOffset dy="4"/>
<feGaussianBlur stdDeviation="2"/>
<feComposite in2="hardAlpha" operator="out"/>
<feColorMatrix type="matrix" values="0 0 0 0 0 0 0 0 0 0 0 0 0 0 0 0 0 0 0.25 0"/>
<feBlend mode="normal" in2="BackgroundImageFix" result="effect1_dropShadow_3480_62"/>
<feBlend mode="normal" in="SourceGraphic" in2="effect1_dropShadow_3480_62" result="shape"/>
</filter>
</defs>
</svg>
