<?xml version="1.0" encoding="UTF-8" standalone="no"?>
<!DOCTYPE svg PUBLIC "-//W3C//DTD SVG 1.1//EN" "http://www.w3.org/Graphics/SVG/1.1/DTD/svg11.dtd">
<!-- Created with Vectornator (http://vectornator.io/) -->
<svg height="96.0pt" stroke-miterlimit="10" style="fill-rule:nonzero;clip-rule:evenodd;stroke-linecap:round;stroke-linejoin:round;" version="1.1" viewBox="0 0 96 96" width="96.0pt" xml:space="preserve" xmlns="http://www.w3.org/2000/svg" xmlns:xlink="http://www.w3.org/1999/xlink">
<defs/>
<clipPath id="ArtboardFrame">
<rect height="96" width="96" x="0" y="0"/>
</clipPath>
<g clip-path="url(#ArtboardFrame)" id="图层-2">
<path d="M-1.42109e-14 18C-1.42109e-14 8.05887 8.05887 7.10543e-15 18 1.42109e-14L78 1.42109e-14C87.9411 1.42109e-14 96 8.05887 96 18L96 78C96 87.9411 87.9411 96 78 96L18 96C8.05887 96-1.42109e-14 87.9411-1.42109e-14 78L-1.42109e-14 18Z" fill="#e7f7ff" fill-rule="nonzero" opacity="1" stroke="none"/>
</g>
<g id="图层-3">
<g opacity="1">
<path d="M26 26C26 22.6863 28.6863 20 32 20L55.7854 20L70 34.3529L70 70C70 73.3137 67.3137 76 64 76L32 76C28.6863 76 26 73.3137 26 70L26 26Z" fill="none" opacity="1" stroke="#007aff" stroke-linecap="butt" stroke-linejoin="round" stroke-width="4"/>
<path d="M55.1872 20L54.9782 36.8002L70 36.767" fill="none" opacity="1" stroke="#007aff" stroke-linecap="butt" stroke-linejoin="round" stroke-width="4"/>
<path d="M34.9349 35.1444L45.9349 35.0444" fill="none" opacity="1" stroke="#007aff" stroke-linecap="round" stroke-linejoin="round" stroke-width="4"/>
<path d="M34.9349 47.1495L45.9349 47.0495" fill="none" opacity="1" stroke="#007aff" stroke-linecap="round" stroke-linejoin="round" stroke-width="4"/>
<path d="M34.9349 59.2247L57.9349 59.3247" fill="none" opacity="1" stroke="#007aff" stroke-linecap="round" stroke-linejoin="round" stroke-width="4"/>
</g>
</g>
</svg>
