<?xml version="1.0" encoding="UTF-8" standalone="no"?>
<!DOCTYPE svg PUBLIC "-//W3C//DTD SVG 1.1//EN" "http://www.w3.org/Graphics/SVG/1.1/DTD/svg11.dtd">
<!-- Created with Vectornator (http://vectornator.io/) -->
<svg height="96.0pt" stroke-miterlimit="10" style="fill-rule:nonzero;clip-rule:evenodd;stroke-linecap:round;stroke-linejoin:round;" version="1.1" viewBox="0 0 96 96" width="96.0pt" xml:space="preserve" xmlns="http://www.w3.org/2000/svg" xmlns:xlink="http://www.w3.org/1999/xlink">
<defs/>
<clipPath id="ArtboardFrame">
<rect height="96" width="96" x="0" y="0"/>
</clipPath>
<g clip-path="url(#ArtboardFrame)" id="图层-2">
<path d="M-1.42109e-14 18C-1.42109e-14 8.05887 8.05887 7.10543e-15 18 1.42109e-14L78 1.42109e-14C87.9411 1.42109e-14 96 8.05887 96 18L96 78C96 87.9411 87.9411 96 78 96L18 96C8.05887 96-1.42109e-14 87.9411-1.42109e-14 78L-1.42109e-14 18Z" fill="#fff5e7" fill-rule="nonzero" opacity="1" stroke="none"/>
</g>
<g id="图层-3">
<g opacity="1">
<path d="M20 32C20 28.6863 22.6863 26 26 26L70 26C73.3137 26 76 28.6863 76 32L76 64C76 67.3137 73.3137 70 70 70L26 70C22.6863 70 20 67.3137 20 64L20 32Z" fill="none" opacity="0.998405" stroke="#ff9910" stroke-linecap="butt" stroke-linejoin="round" stroke-width="4"/>
<path d="M40.8084 39.391L67.3273 39.391L67.3273 56.609L40.8084 56.609L40.8084 39.391Z" fill="none" opacity="1" stroke="#ff9910" stroke-linecap="butt" stroke-linejoin="round" stroke-width="4"/>
<path d="M27.9466 34.4044C27.9466 34.4023 27.9483 34.4005 27.9505 34.4005L33.9427 34.4005C33.9448 34.4005 33.9466 34.4023 33.9466 34.4044L33.9466 40.3966C33.9466 40.3988 33.9448 40.4005 33.9427 40.4005L27.9505 40.4005C27.9483 40.4005 27.9466 40.3988 27.9466 40.3966L27.9466 34.4044Z" fill="#ff9910" fill-rule="nonzero" opacity="1" stroke="none"/>
<path d="M27.9466 45.9655C27.9466 45.9633 27.9483 45.9616 27.9505 45.9616L33.9427 45.9616C33.9448 45.9616 33.9466 45.9633 33.9466 45.9655L33.9466 51.9577C33.9466 51.9598 33.9448 51.9616 33.9427 51.9616L27.9505 51.9616C27.9483 51.9616 27.9466 51.9598 27.9466 51.9577L27.9466 45.9655Z" fill="#ff9910" fill-rule="nonzero" opacity="1" stroke="none"/>
<path d="M27.9466 56.1778C27.9466 56.1756 27.9483 56.1739 27.9505 56.1739L33.9427 56.1739C33.9448 56.1739 33.9466 56.1756 33.9466 56.1778L33.9466 62.17C33.9466 62.1721 33.9448 62.1739 33.9427 62.1739L27.9505 62.1739C27.9483 62.1739 27.9466 62.1721 27.9466 62.17L27.9466 56.1778Z" fill="#ff9910" fill-rule="nonzero" opacity="1" stroke="none"/>
</g>
</g>
</svg>
