<?xml version="1.0" encoding="UTF-8" standalone="no"?>
<!DOCTYPE svg PUBLIC "-//W3C//DTD SVG 1.1//EN" "http://www.w3.org/Graphics/SVG/1.1/DTD/svg11.dtd">
<!-- Created with Vectornator (http://vectornator.io/) -->
<svg height="96.0pt" stroke-miterlimit="10" style="fill-rule:nonzero;clip-rule:evenodd;stroke-linecap:round;stroke-linejoin:round;" version="1.1" viewBox="0 0 96 96" width="96.0pt" xml:space="preserve" xmlns="http://www.w3.org/2000/svg" xmlns:xlink="http://www.w3.org/1999/xlink">
<defs/>
<clipPath id="ArtboardFrame">
<rect height="96" width="96" x="0" y="0"/>
</clipPath>
<g clip-path="url(#ArtboardFrame)" id="图层-2">
<path d="M-1.42109e-14 18C-1.42109e-14 8.05887 8.05887 7.10543e-15 18 1.42109e-14L78 1.42109e-14C87.9411 1.42109e-14 96 8.05887 96 18L96 78C96 87.9411 87.9411 96 78 96L18 96C8.05887 96-1.42109e-14 87.9411-1.42109e-14 78L-1.42109e-14 18Z" fill="#ffe7d8" fill-rule="nonzero" opacity="1" stroke="none"/>
</g>
<g id="图层-3">
<g opacity="1">
<path d="M26 26C26 22.6863 28.6863 20 32 20L64 20C67.3137 20 70 22.6863 70 26L70 70C70 73.3137 67.3137 76 64 76L32 76C28.6863 76 26 73.3137 26 70L26 26Z" fill="none" opacity="1" stroke="#ff6302" stroke-linecap="butt" stroke-linejoin="round" stroke-width="4"/>
<path d="M39.9414 54.9862C43.2986 51.6136 47.608 44.5767 49.231 39.4944C50.8539 34.4121 44.0935 34.3996 46.0028 39.5227C47.9121 44.6458 53.0867 51.3106 56.1795 54.9256C59.2723 58.5406 62.5652 55.0764 57.8575 54.043C53.1498 53.0097 43.792 52.7709 38.39 53.8522C32.988 54.9335 36.5842 58.3587 39.9414 54.9862Z" fill="none" opacity="1" stroke="#ff6302" stroke-linecap="butt" stroke-linejoin="round" stroke-width="4"/>
</g>
</g>
</svg>
