<?xml version="1.0" encoding="UTF-8" standalone="no"?>
<!DOCTYPE svg PUBLIC "-//W3C//DTD SVG 1.1//EN" "http://www.w3.org/Graphics/SVG/1.1/DTD/svg11.dtd">
<!-- Created with Vectornator (http://vectornator.io/) -->
<svg height="96.0pt" stroke-miterlimit="10" style="fill-rule:nonzero;clip-rule:evenodd;stroke-linecap:round;stroke-linejoin:round;" version="1.1" viewBox="0 0 96 96" width="96.0pt" xml:space="preserve" xmlns="http://www.w3.org/2000/svg" xmlns:xlink="http://www.w3.org/1999/xlink">
<defs/>
<clipPath id="ArtboardFrame">
<rect height="96" width="96" x="0" y="0"/>
</clipPath>
<g clip-path="url(#ArtboardFrame)" id="图层-2">
<path d="M-1.42109e-14 18C-1.42109e-14 8.05887 8.05887 7.10543e-15 18 1.42109e-14L78 1.42109e-14C87.9411 1.42109e-14 96 8.05887 96 18L96 78C96 87.9411 87.9411 96 78 96L18 96C8.05887 96-1.42109e-14 87.9411-1.42109e-14 78L-1.42109e-14 18Z" fill="#f3f3f3" fill-rule="nonzero" opacity="1" stroke="none"/>
</g>
<g id="图层-3">
<path d="M45.5 62.6173C45.5 61.2366 46.6193 60.1173 48 60.1173C49.3807 60.1173 50.5 61.2366 50.5 62.6173C50.5 63.998 49.3807 65.1173 48 65.1173C46.6193 65.1173 45.5 63.998 45.5 62.6173Z" fill="#979797" fill-rule="nonzero" opacity="1" stroke="none"/>
<path d="M20 26C20 22.6863 22.6863 20 26 20L70 20C73.3137 20 76 22.6863 76 26L76 70C76 73.3137 73.3137 76 70 76L26 76C22.6863 76 20 73.3137 20 70L20 26Z" fill="none" opacity="1" stroke="#979797" stroke-linecap="butt" stroke-linejoin="round" stroke-width="4"/>
<path d="M39.0157 40.5927C39.5598 35.2081 42.8784 31.7209 48 31.7392C53.1216 31.7575 57.8963 37.2544 54.9638 42.7336C53.8748 44.7683 50.5 46.4829 49.2984 48C47.1573 50.7034 47.3892 52.6748 47.3936 54.1718" fill="none" opacity="1" stroke="#979797" stroke-linecap="round" stroke-linejoin="round" stroke-width="4"/>
</g>
</svg>
