<svg width="6" height="6" viewBox="0 0 6 6" fill="none" xmlns="http://www.w3.org/2000/svg">
<path d="M5.18721 3.42217C5.27013 3.42217 5.34965 3.46609 5.40829 3.54427C5.46692 3.62245 5.49986 3.72848 5.49986 3.83904C5.49986 3.94959 5.46692 4.05562 5.40829 4.1338C5.34965 4.21198 5.27013 4.2559 5.18721 4.2559H1.57298L1.96234 4.77546C2.08109 4.94504 2.07734 5.20961 1.95453 5.37377C1.89541 5.45275 1.81558 5.49799 1.7319 5.49993C1.64823 5.50188 1.56726 5.46037 1.50611 5.38419L0.593649 4.16673C0.562196 4.12412 0.537818 4.07317 0.522098 4.01718C0.506378 3.96119 0.499667 3.90142 0.502402 3.84174L0.501777 3.83966C0.501736 3.78491 0.509789 3.73069 0.525474 3.68009C0.54116 3.62949 0.564171 3.58351 0.593192 3.54477C0.622213 3.50604 0.656676 3.47531 0.694609 3.45435C0.732542 3.43338 0.773202 3.42259 0.814265 3.42259L5.18721 3.42217ZM4.48912 0.626854L5.40689 1.85223C5.50282 1.98056 5.52564 2.16847 5.47595 2.32596C5.46043 2.37813 5.4371 2.42554 5.4074 2.46529C5.37769 2.50505 5.34222 2.53632 5.30315 2.5572C5.25877 2.5822 5.21159 2.59054 5.1644 2.58845H0.814265C0.731305 2.58845 0.651743 2.54451 0.593082 2.4663C0.53442 2.38808 0.501465 2.282 0.501465 2.17138C0.501465 2.06077 0.53442 1.95469 0.593082 1.87647C0.651743 1.79826 0.731305 1.75432 0.814265 1.75432H4.41568L4.03007 1.23933C3.9692 1.15808 3.93501 1.04794 3.93501 0.933094C3.93501 0.818251 3.9692 0.708104 4.03007 0.626854C4.06017 0.586642 4.09592 0.554739 4.13528 0.532972C4.17464 0.511204 4.21683 0.5 4.25944 0.5C4.30205 0.5 4.34424 0.511204 4.3836 0.532972C4.42295 0.554739 4.45902 0.586642 4.48912 0.626854Z" fill="#82B1FF"/>
</svg>
