<svg
    xmlns="http://www.w3.org/2000/svg"
    viewBox="0 0 365 318"
    id="vector">
    <path
        id="path"
        d="M 252.1 9.5 L 355.5 113 C 368.1 125.7 368.1 146.3 355.5 159 L 309 205.5 L 205.6 309 C 192.9 321.6 172.3 321.6 159.6 309 L 56.1 205.6 L 9.5 159 C -3.1 146.3 -3.1 125.7 9.5 113 L 113 9.5 C 125.7 -3.1 146.3 -3.1 159 9.5 L 182.6 33.1 L 206.2 9.5 C 218.9 -3.2 239.4 -3.2 252.1 9.5 Z M 332.1 137.3 C 333.5 135.9 334.3 134 334.2 132 C 334.2 130 333.4 128 331.9 126.6 L 234.1 29.3 C 231 26.4 226.2 26.4 223.1 29.3 L 211.5 40.7 L 157.7 92.7 C 166.5 97.5 173.6 94 180.9 87.1 L 201.7 66.6 C 205.3 63.1 213.6 63 217.4 66.8 C 221.2 70.6 222.4 77.1 221 80.4 L 301.5 158.8 C 302.9 160.4 304.1 162.1 305.1 164 L 332.1 137.3 L 332.1 137.3 Z M 125 91.9 C 133.8 82.6 159.3 56.3 159.3 56.3 L 142 38.8 C 138.7 35.4 133.2 35.3 129.8 38.5 L 38.7 129.6 C 37.1 131.2 36.3 133.4 36.3 135.6 C 36.3 137.9 37.3 140.2 39 141.8 L 178.7 281.8 C 180.1 283.1 181.8 284 183.7 284.2 C 185.5 284 187.2 283.3 188.5 282 L 191.8 278.7 L 110.8 197.7 C 104.3 191.1 104 180.7 110.3 174.4 L 110.8 173.9 C 117.1 167.6 127.5 167.8 134.1 174.4 L 209.4 249.7 L 209.5 249.6 L 215.2 255.3 L 223.6 246.9 L 175 198.3 C 168.5 191.7 168.2 181.3 174.5 175 L 175 174.5 C 181.3 168.2 191.7 168.4 198.3 175 L 247 223.6 L 255.5 215.1 L 232.8 192.4 C 226.3 185.8 226 175.4 232.3 169.1 L 232.8 168.6 C 239.1 162.3 249.5 162.5 256.1 169.1 L 278.8 191.8 L 284.2 186.4 C 284.3 185.9 284.4 185.4 284.5 184.9 C 284.5 182.6 283.5 180.4 281.9 178.7 L 202 98.9 L 190.7 110.1 C 173.2 127.4 144.9 126.9 126.7 108.8 C 126.6 108.8 118.1 99.2 125 91.9 Z"
        fill="#0097ff"/>
</svg>
