<svg
    xmlns="http://www.w3.org/2000/svg"
    viewBox="0 0 18 18"
    id="vector">
    <path
        id="path"
        d="M 15 13 L 17 13 L 17 15 C 17 16.105 16.105 17 15 17 L 3 17 C 1.895 17 1 16.105 1 15 L 1 3 C 1 1.895 1.895 1 3 1 L 15 1 C 16.105 1 17 1.895 17 3 L 17 5 L 15 5 L 15 3 L 3 3 L 3 15 L 15 15 L 15 13 Z"
        fill="#0f86fb"
        stroke="#00000000"
        stroke-width="1"/>
    <path
        id="path_1"
        d="M 6.539 8.005 L 16.022 8.005 C 16.562 8.005 17 8.443 17 8.983 L 17 8.983 C 17 9.523 16.562 9.961 16.022 9.961 L 6.539 9.961 C 5.999 9.961 5.561 9.523 5.561 8.983 L 5.561 8.983 C 5.561 8.443 5.999 8.005 6.539 8.005 Z"
        fill="#0f86fb"
        stroke="#00000000"
        stroke-width="1"/>
    <path
        id="path_2"
        d="M 6.547 8.282 L 9.368 11.104 C 9.76 11.496 9.764 12.131 9.377 12.528 L 9.377 12.528 C 8.997 12.919 8.371 12.927 7.981 12.546 C 7.977 12.543 7.974 12.54 7.971 12.537 L 5.15 9.716 C 4.758 9.323 4.754 8.689 5.141 8.291 L 5.141 8.291 C 5.521 7.901 6.147 7.893 6.538 8.273 C 6.541 8.276 6.544 8.279 6.547 8.282 Z"
        fill="#0f86fb"
        stroke="#00000000"
        stroke-width="1"/>
    <path
        id="path_3"
        d="M 6.474 9.648 L 9.368 6.753 C 9.733 6.389 9.733 5.798 9.368 5.434 C 9.364 5.43 9.361 5.426 9.357 5.422 L 9.357 5.422 C 8.978 5.056 8.376 5.061 8.003 5.434 L 5.109 8.328 C 4.745 8.693 4.745 9.284 5.109 9.648 C 5.113 9.652 5.117 9.655 5.12 9.659 L 5.12 9.659 C 5.499 10.025 6.101 10.02 6.474 9.648 Z"
        fill="#0f86fb"
        stroke="#00000000"
        stroke-width="1"/>
    <path
        id="path_4"
        d="M 16.995 4.4 L 16.995 4.985 C 16.995 5.536 16.548 5.982 15.997 5.982 L 15.997 5.982 C 15.447 5.982 15 5.536 15 4.985 L 15 4.4 C 15 3.849 15.447 3.402 15.997 3.402 L 15.997 3.402 C 16.548 3.402 16.995 3.849 16.995 4.4 Z"
        fill="#0f86fb"
        stroke="#00000000"
        stroke-width="1"/>
    <path
        id="path_5"
        d="M 16.991 13.023 L 16.991 14.647 C 16.991 15.2 16.543 15.647 15.991 15.647 L 15.991 15.647 C 15.438 15.647 14.991 15.2 14.991 14.647 L 14.991 13.023 C 14.991 12.47 15.438 12.023 15.991 12.023 L 15.991 12.023 C 16.543 12.023 16.991 12.47 16.991 13.023 Z"
        fill="#0f86fb"
        stroke="#00000000"
        stroke-width="1"/>
</svg>
