<svg
    xmlns="http://www.w3.org/2000/svg"
    viewBox="0 0 311 313"
    id="vector">
    <path
        id="path"
        d="M 7.29 289.09 C 7.178 289.514 7.098 289.945 7.05 290.38 C 7.006 290.752 7.006 291.128 7.05 291.5 C 7.151 293.505 8.02 295.396 9.475 296.779 C 10.93 298.162 12.863 298.934 14.87 298.934 C 16.877 298.934 18.81 298.162 20.265 296.779 C 21.72 295.396 22.589 293.505 22.69 291.5 C 35.09 229.33 88.43 181.86 154.27 181.86 L 155.46 181.86 L 155.46 163.91 C 80.81 163.91 20.34 218.25 7.32 289.09 Z M 7.29 289.09"
        fill="#1089ff"
        stroke="#1089ff"
        stroke-width="14"/>
    <path
        id="path_1"
        d="M 156.41 7.5 C 133.366 7.5 111.243 16.664 94.948 32.958 C 78.654 49.253 69.49 71.376 69.49 94.42 C 69.49 117.464 78.654 139.587 94.948 155.882 C 111.243 172.176 133.366 181.34 156.41 181.34 C 179.454 181.34 201.577 172.176 217.872 155.882 C 234.166 139.587 243.33 117.464 243.33 94.42 C 243.327 71.377 234.163 49.255 217.869 32.961 C 201.575 16.667 179.453 7.503 156.41 7.5 Z M 156.41 163.5 C 138.117 163.5 120.555 156.225 107.62 143.29 C 94.685 130.355 87.41 112.793 87.41 94.5 C 87.41 76.207 94.685 58.645 107.62 45.71 C 120.555 32.775 138.117 25.5 156.41 25.5 C 174.703 25.5 192.265 32.775 205.2 45.71 C 218.135 58.645 225.41 76.207 225.41 94.5 C 225.41 112.793 218.135 130.355 205.2 143.29 C 192.265 156.225 174.703 163.5 156.41 163.5 Z M 156.41 163.5"
        fill="#1089ff"
        stroke="#1089ff"
        stroke-width="15"/>
    <path
        id="path_2"
        d="M 295.89 261.68 L 199.12 261.68 C 196.438 261.756 193.801 260.965 191.604 259.425 C 189.406 257.885 187.763 255.676 186.92 253.129 C 186.076 250.581 186.076 247.829 186.92 245.281 C 187.763 242.734 189.406 240.525 191.604 238.985 C 193.801 237.445 196.438 236.654 199.12 236.73 L 295.89 236.73 C 299.136 236.822 302.222 238.177 304.485 240.506 C 306.749 242.835 308.017 245.957 308.017 249.205 C 308.017 252.453 306.749 255.575 304.485 257.904 C 302.222 260.233 299.136 261.588 295.89 261.68 Z M 295.89 261.68"
        fill="#1089ff"
        stroke="#1089ff"
        stroke-width="6"/>
    <path
        id="path_3"
        d="M 259.96 200.83 L 259.96 297.61 C 260.036 300.292 259.245 302.929 257.705 305.126 C 256.165 307.324 253.956 308.967 251.409 309.81 C 248.861 310.654 246.109 310.654 243.561 309.81 C 241.014 308.967 238.805 307.324 237.265 305.126 C 235.725 302.929 234.934 300.292 235.01 297.61 L 235.01 200.83 C 235.102 197.584 236.457 194.498 238.786 192.235 C 241.115 189.971 244.237 188.703 247.485 188.703 C 250.733 188.703 253.855 189.971 256.184 192.235 C 258.513 194.498 259.868 197.584 259.96 200.83 Z M 259.96 200.83"
        fill="#1089ff"
        stroke="#1089ff"
        stroke-width="6"/>
    <path
        id="path_4"
        d="M 422.39 721.4"
        fill="#0097ff"/>
</svg>
